name C:/MyDriveSym/Projects/mobilecap/Data\Session20210816_0002\mocap\ForceDataProcessed\walkingTS3_forces.mot
datacolumns 19
datarows 12
range 1.27450000 1.28000000
endheader 
time	R_ground_force_vx	R_ground_force_vy	R_ground_force_vz	R_ground_force_px	R_ground_force_py	R_ground_force_pz	R_ground_torque_x	R_ground_torque_y	R_ground_torque_z	L_ground_force_vx	L_ground_force_vy	L_ground_force_vz	L_ground_force_px	L_ground_force_py	L_ground_force_pz	L_ground_torque_x	L_ground_torque_y	L_ground_torque_z	
          1.27450000	          0.00000000	          0.00000000	          0.00000000	          1.28849700	          0.00000000	         -0.12911900	          0.00000000	          0.00000000	          0.00000000	         35.08571800	        621.56007400	         22.83255800	          0.96224900	          0.00600000	         -0.26875300	          0.00000000	          7.10609600	          0.00000000	
          1.27500000	          0.00000000	          0.00000000	          0.00000000	          1.28973600	          0.00000000	         -0.12909900	          0.00000000	          0.00000000	          0.00000000	         35.30128300	        621.85483800	         22.91432000	          0.96231000	          0.00600000	         -0.26876400	          0.00000000	          7.10246900	          0.00000000	
          1.27550000	          0.00000000	          0.00000000	          0.00000000	          1.29097600	          0.00000000	         -0.12907900	          0.00000000	          0.00000000	          0.00000000	         35.51717800	        622.14836700	         22.99617400	          0.96237000	          0.00600000	         -0.26877500	          0.00000000	          7.09875000	          0.00000000	
          1.27600000	          0.00000000	          0.00000000	          0.00000000	          1.29221600	          0.00000000	         -0.12905900	          0.00000000	          0.00000000	          0.00000000	         35.73339800	        622.44061600	         23.07811000	          0.96243000	          0.00600000	         -0.26878600	          0.00000000	          7.09493900	          0.00000000	
          1.27650000	          0.00000000	          0.00000000	          0.00000000	          1.29345500	          0.00000000	         -0.12904000	          0.00000000	          0.00000000	          0.00000000	         35.94994100	        622.73154200	         23.16011700	          0.96249000	          0.00600000	         -0.26879600	          0.00000000	          7.09103700	          0.00000000	
          1.27700000	          0.00000000	          0.00000000	          0.00000000	          1.29469500	          0.00000000	         -0.12902000	          0.00000000	          0.00000000	          0.00000000	         36.16680400	        623.02110200	         23.24218500	          0.96255100	          0.00600000	         -0.26880700	          0.00000000	          7.08704400	          0.00000000	
          1.27750000	          0.00000000	          0.00000000	          0.00000000	          1.29593500	          0.00000000	         -0.12900000	          0.00000000	          0.00000000	          0.00000000	         36.38398200	        623.30924900	         23.32430500	          0.96261100	          0.00600000	         -0.26881700	          0.00000000	          7.08296200	          0.00000000	
          1.27800000	          0.00000000	          0.00000000	          0.00000000	          1.29717400	          0.00000000	         -0.12898000	          0.00000000	          0.00000000	          0.00000000	         36.60147300	        623.59594200	         23.40646500	          0.96267100	          0.00600000	         -0.26882800	          0.00000000	          7.07879100	          0.00000000	
          1.27850000	          0.00000000	          0.00000000	          0.00000000	          1.29841400	          0.00000000	         -0.12896000	          0.00000000	          0.00000000	          0.00000000	         36.81927200	        623.88113400	         23.48865600	          0.96273100	          0.00600000	         -0.26883800	          0.00000000	          7.07453200	          0.00000000	
          1.27900000	          0.00000000	          0.00000000	          0.00000000	          1.29965400	          0.00000000	         -0.12894000	          0.00000000	          0.00000000	          0.00000000	         37.03737700	        624.16478100	         23.57086700	          0.96279100	          0.00600000	         -0.26884900	          0.00000000	          7.07018400	          0.00000000	
          1.27950000	          0.00000000	          0.00000000	          0.00000000	          1.30089300	          0.00000000	         -0.12892100	          0.00000000	          0.00000000	          0.00000000	         37.25578400	        624.44683800	         23.65308800	          0.96285100	          0.00600000	         -0.26885900	          0.00000000	          7.06575100	          0.00000000	
          1.28000000	          0.00000000	          0.00000000	          0.00000000	          1.30213300	          0.00000000	         -0.12890100	          0.00000000	          0.00000000	          0.00000000	         37.47449000	        624.72726000	         23.73530900	          0.96291100	          0.00600000	         -0.26887000	          0.00000000	          7.06123000	          0.00000000	
